<?xml version="1.0" encoding="utf-8"?>
<!-- Generator: Adobe Illustrator 16.0.0, SVG Export Plug-In . SVG Version: 6.00 Build 0)  -->
<!DOCTYPE svg PUBLIC "-//W3C//DTD SVG 1.1//EN" "http://www.w3.org/Graphics/SVG/1.1/DTD/svg11.dtd">
<svg version="1.1" id="Layer_1" xmlns="http://www.w3.org/2000/svg" xmlns:xlink="http://www.w3.org/1999/xlink" x="0px" y="0px"
	 width="447.273px" height="293px" viewBox="0 0 447.273 293" enable-background="new 0 0 447.273 293" xml:space="preserve">
<g>
	<path opacity="0.5" fill="#DEB14F" d="M262.021,259.346c0,0-51.74,3.618-115.567,3.618c-63.826,0-115.566-3.618-115.566-3.618
		s51.74-3.619,115.566-3.619C210.281,255.727,262.021,259.346,262.021,259.346z"/>
	<g>
		<rect x="203.253" y="29.982" fill="#00BEB9" width="151.517" height="93.635"/>
		<rect x="209.598" y="35.694" fill="#FFFFFF" width="138.834" height="82.213"/>
		<polygon fill="#353537" points="336.971,106.907 336.971,68.143 329.314,68.143 329.314,106.907 324.396,106.907 324.396,78.697 
			316.738,78.697 316.738,106.907 311.819,106.907 311.819,65.904 304.162,65.904 304.162,106.907 299.246,106.907 299.246,59.927 
			291.589,59.927 291.589,106.907 286.669,106.907 286.669,78.697 279.013,78.697 279.013,106.907 273.079,106.907 273.079,53.997 
			271.4,53.997 271.4,108.588 342.61,108.588 342.61,106.907 		"/>
		<rect x="217.26" y="48.767" fill="#00BEB9" width="43.182" height="2.614"/>
		<rect x="217.26" y="56.235" fill="#00BEB9" width="43.182" height="2.616"/>
		<rect x="217.26" y="63.706" fill="#00BEB9" width="21.215" height="2.615"/>
		<g>
			<polygon fill="#00BEB9" points="245.147,96.297 245.147,103.768 241.282,107.572 233.873,107.572 233.873,96.297 			"/>
			<polygon fill="#00A49F" points="245.147,103.768 241.282,107.572 241.282,103.768 			"/>
		</g>
		<g>
			<g>
				<rect x="217.694" y="96.297" fill="#F065A6" width="11.272" height="11.275"/>
			</g>
		</g>
		<polygon fill="#00BEB9" points="333.143,57.639 326.642,59.271 328.39,61.075 320.508,68.713 293.599,47.758 280.199,57.809 
			281.207,59.153 293.579,49.873 320.626,70.937 329.559,62.283 331.307,64.087 		"/>
		<g>
			<circle fill="#5202B5" cx="224.966" cy="81.823" r="7.707"/>
			<g>
				<path fill="#FFFFFF" d="M224.967,76.404c-2.994,0-5.42,2.426-5.42,5.419c0,2.992,2.426,5.419,5.42,5.419
					c2.992,0,5.419-2.427,5.419-5.419C230.386,78.83,227.959,76.404,224.967,76.404z M223.995,77.188
					c-0.501,0.394-0.923,1.089-1.2,1.979c-0.466-0.167-0.878-0.387-1.223-0.645C222.219,77.858,223.056,77.383,223.995,77.188z
					 M221.233,78.91c0.4,0.307,0.883,0.566,1.423,0.758c-0.138,0.575-0.222,1.214-0.237,1.893h-2.182
					C220.292,80.563,220.657,79.649,221.233,78.91z M220.237,82.086h2.182c0.018,0.698,0.106,1.354,0.251,1.943
					c-0.533,0.188-1.013,0.438-1.414,0.736C220.664,84.022,220.294,83.098,220.237,82.086z M221.599,85.153
					c0.344-0.25,0.752-0.462,1.213-0.624c0.278,0.866,0.692,1.542,1.184,1.931C223.067,86.267,222.239,85.801,221.599,85.153z
					 M224.702,86.256c-0.563-0.17-1.064-0.88-1.385-1.877c0.433-0.11,0.898-0.18,1.385-0.196V86.256z M224.702,83.655
					c-0.535,0.019-1.048,0.096-1.525,0.22c-0.131-0.544-0.214-1.151-0.23-1.789h1.756V83.655z M224.702,81.561h-1.756
					c0.017-0.617,0.092-1.205,0.218-1.735c0.481,0.127,0.999,0.205,1.538,0.224V81.561z M224.702,79.522
					c-0.493-0.019-0.965-0.088-1.403-0.202c0.322-1.026,0.83-1.757,1.403-1.931V79.522z M229.695,81.561h-2.181
					c-0.018-0.679-0.102-1.317-0.237-1.893c0.539-0.191,1.021-0.451,1.424-0.758C229.28,79.649,229.641,80.563,229.695,81.561z
					 M228.36,78.521c-0.345,0.258-0.756,0.478-1.221,0.645c-0.282-0.89-0.701-1.585-1.201-1.979
					C226.878,77.383,227.716,77.858,228.36,78.521z M225.229,77.39c0.576,0.174,1.082,0.904,1.403,1.931
					c-0.439,0.114-0.909,0.184-1.403,0.202V77.39z M225.229,80.049c0.54-0.019,1.059-0.097,1.54-0.224
					c0.123,0.53,0.2,1.118,0.217,1.735h-1.757V80.049z M225.229,82.086h1.757c-0.017,0.638-0.099,1.245-0.23,1.789
					c-0.478-0.124-0.99-0.201-1.526-0.22V82.086z M225.229,86.256v-2.073c0.486,0.017,0.952,0.086,1.386,0.196
					C226.296,85.376,225.795,86.086,225.229,86.256z M225.938,86.46c0.494-0.388,0.904-1.064,1.184-1.931
					c0.46,0.162,0.87,0.374,1.213,0.624C227.693,85.804,226.865,86.267,225.938,86.46z M228.677,84.766
					c-0.401-0.297-0.876-0.549-1.412-0.736c0.145-0.59,0.232-1.245,0.25-1.943h2.181C229.641,83.098,229.268,84.022,228.677,84.766z
					"/>
			</g>
		</g>
		<g>
			<circle fill="#E34932" cx="243.64" cy="81.823" r="7.596"/>
			<path fill="#FFFFFF" d="M248.113,80.793h-0.943c-0.077-0.259-0.177-0.506-0.306-0.738l0.666-0.666
				c0.185-0.184,0.185-0.482,0-0.665l-0.79-0.792c-0.184-0.184-0.481-0.184-0.664,0l-0.667,0.666
				c-0.232-0.127-0.481-0.229-0.738-0.304v-0.943c0-0.26-0.212-0.471-0.471-0.471h-1.119c-0.26,0-0.472,0.211-0.472,0.471v0.943
				c-0.259,0.075-0.505,0.177-0.738,0.304l-0.666-0.666c-0.184-0.184-0.481-0.184-0.664,0l-0.79,0.792
				c-0.188,0.183-0.188,0.481,0,0.665l0.663,0.666c-0.128,0.232-0.229,0.479-0.304,0.738h-0.941c-0.261,0-0.473,0.212-0.473,0.472
				v1.117c0,0.26,0.212,0.471,0.473,0.471h0.941c0.075,0.259,0.176,0.508,0.304,0.738l-0.663,0.667
				c-0.188,0.184-0.188,0.481,0,0.665l0.79,0.791c0.183,0.185,0.48,0.185,0.664,0l0.666-0.666c0.233,0.128,0.479,0.229,0.738,0.305
				v0.943c0,0.26,0.212,0.471,0.472,0.471h1.119c0.259,0,0.471-0.211,0.471-0.471v-0.943c0.257-0.076,0.506-0.177,0.738-0.305
				l0.667,0.666c0.183,0.185,0.48,0.185,0.664,0l0.79-0.791c0.185-0.184,0.185-0.481,0-0.665l-0.666-0.667
				c0.129-0.23,0.229-0.479,0.306-0.738h0.943c0.259,0,0.47-0.211,0.47-0.471v-1.117C248.583,81.005,248.372,80.793,248.113,80.793z
				 M243.64,83.796c-1.089,0-1.974-0.883-1.974-1.973c0-1.089,0.885-1.973,1.974-1.973c1.088,0,1.973,0.884,1.973,1.973
				C245.612,82.913,244.728,83.796,243.64,83.796z"/>
		</g>
		<g>
			<g>
				<rect x="256.799" y="75.399" fill="#353537" width="3.163" height="3.162"/>
				<rect x="261.937" y="75.399" fill="#353537" width="3.162" height="3.162"/>
			</g>
			<g>
				<rect x="256.799" y="80.242" fill="#353537" width="3.163" height="3.161"/>
				<rect x="261.937" y="80.242" fill="#F065A6" width="3.162" height="3.161"/>
			</g>
			<g>
				<rect x="256.799" y="85.085" fill="#F065A6" width="3.163" height="3.163"/>
				<rect x="261.937" y="85.085" fill="#F065A6" width="3.162" height="3.163"/>
			</g>
		</g>
	</g>
	<g>
		<g>
			<path fill="#5202B5" d="M374.088,103.687c0,0-13.93,11.181-25.869,7.206c-11.938-3.974-16.572-26.481-16.572-26.481
				s2.672-4.597,0-6.182c0,0,0.535-3.805-2.137-4.121c-2.675-0.317-13.189,2.853-2.496,11.095c0,0,3.027,40.577,26.017,42.004
				c22.988,1.426,22.703-4.367,22.703-4.367L374.088,103.687z"/>
			<path fill="#F4EED8" d="M331.647,84.411c0,0,0.574-0.994,0.924-2.215l0.002-0.001c2.463-0.757,1.178-7.052,0.094-8.107
				c-0.805-0.782-1.928-0.253-2.463,0.077c-0.539-1.055-3.449-6.578-5.054-6.071c-1.187,0.375,0.009,4.142,0.929,6.597
				c-3.455,1.262-6.778,4.566,0.937,10.513c0,0,0.328,4.415,1.595,10.382c2.004-0.428,3.965-1.04,5.868-1.83
				C332.52,88.64,331.647,84.411,331.647,84.411z"/>
		</g>
		<polygon fill="#F4EED8" points="401.016,145.455 390.977,158.2 393.172,160.721 406.385,150.143 		"/>
		<path fill="#5202B5" d="M381.032,100.51c0,0,16.201,1.666,19.846,6.988c3.641,5.322,16.793,19.608,15.406,30.535
			c-1.387,10.924-7.563,14.145-7.563,14.145l-7.705-6.723c0,0,5.041-4.061,4.201-8.125c-0.838-4.061-12.045-14.846-12.045-14.846
			l-8.824-17.647L381.032,100.51z"/>
		<g>
			<g>
				<g>
					<g>
						<g>
							<path opacity="0.5" fill="#DEB14F" d="M416.385,256.93c0,0-21.234,3.017-47.428,3.017c-26.195,0-47.43-3.017-47.43-3.017
								s21.235-3.018,47.43-3.018C395.151,253.912,416.385,256.93,416.385,256.93z"/>
							<path fill="#FFFFFF" d="M389.065,249.713l0.42,2.568l0.582,3.496l-14.658,3.644c-0.826,0.206-1.475-0.733-0.973-1.425
								c0.699-0.962,1.711-1.946,2.795-2.85c2.594-2.156,5.582-3.881,5.582-3.881L389.065,249.713z"/>
							<path fill="#FFFFFF" d="M363.719,249.713l-0.164,2.598l-0.221,3.536l-15.098,0.269c-0.854,0.014-1.271-1.048-0.629-1.609
								c0.896-0.782,2.105-1.512,3.363-2.151c3.012-1.518,6.309-2.529,6.309-2.529L363.719,249.713z"/>
							<path fill="#0E0E15" d="M391.5,159.061c0,0-1.859,23.092-6.918,43.645l5.158,48.053l-8.094,0.826
								c0,0-8.352-31.549-10.771-38.961c-2.723-8.32,0-28.898,0-28.898s-7.156,15.781-7.156,23.375
								c0,7.595,0.846,42.761,0.846,42.761s-5.393,1.498-8.092,0c-2.695-1.501-4.791-46.858-4.791-46.858l10.486-49.176
								C362.168,153.826,376.215,157.563,391.5,159.061z"/>
						</g>
						<path fill="#5202B5" d="M395.266,160.768c0.416-4.862,1.918-37.251-0.094-44.513c-4.496-16.222-14.141-15.745-14.141-15.745
							c-2.947,6.857-9.133,2.22-9.133,2.22s-10.857,6.58-7.26,24.56c2.32,11.607-2.389,22.234-6.018,28.316
							C369.29,163.004,383.133,164.799,395.266,160.768z"/>
						<path fill="#FFFFFF" d="M371.208,103.263c0,0-3.896,2.328-3.922,4.401c-0.023,2.074,2.59,5.344,2.59,5.344l3.828-4.389
							l3.705,5.321c0,0,11.92-9.146,4.08-14.17C373.653,94.749,371.208,103.263,371.208,103.263z"/>
						<g>
							<path fill="#F4EED8" d="M364.034,84.726c0,0-2.914,16.2,5.955,16.033c8.867-0.167,12.162-6.543,11.539-10.375
								c-0.623-3.829-1.139-11.439-8.742-12.368C365.184,77.087,364.034,84.726,364.034,84.726z"/>
							<path fill="#0E0E15" d="M389.334,81.134c-0.586-1.16-1.686-1.949-2.771-2.666c0.006-0.009,0.016-0.018,0.016-0.029
								c0.025-0.735-0.115-1.475-0.406-2.151c-0.305-0.708-0.771-1.336-1.287-1.907c0.129,0.872,0.199,1.944,0.002,2.805
								c-0.383-0.903-0.783-1.833-1.486-2.519c-0.486-0.477-1.094-0.809-1.711-1.1c-2.805-1.319-5.977-1.849-9.059-1.513
								c-0.705,0.078-1.408,0.197-2.113,0.161c-0.709-0.038-1.436-0.255-1.934-0.757c0.357,0.922,0.91,2.021,1.688,2.63
								c-6.582,2.269-5.629,8.615-5.629,8.615c2.146-0.828,4.379,0.251,4.379,0.251c-0.242,5.931,10.754,8.743,10.754,8.743
								c1.625-1.555,3.867-0.627,3.867-0.627c1.307,0.9,1.307,1.989,1.307,1.989c2.49-1.796,3.094-10.847,3.094-10.847
								c0.639-0.173,1.336-0.125,1.945,0.132C389.704,81.982,389.54,81.543,389.334,81.134z"/>
							<path fill="#F4EED8" d="M379.167,94c0.256,1.598,1.764,2.683,3.361,2.423c1.596-0.259,2.682-1.764,2.422-3.363
								c-0.26-1.597-1.766-2.682-3.361-2.422C379.991,90.896,378.907,92.403,379.167,94z"/>
							<path fill="#F4EED8" d="M380.893,93.141l0.355,2.194c0,0,0.047,0.399,0.096,1.041c0.072,0.845,0.156,2.106,0.145,3.395
								c-0.008,1.999-0.223,4.075-0.992,4.789c-1.648,1.529-7.908,1.825-8.785,1.427c-0.277-0.125-0.43-1.248-0.504-2.724
								c-0.037-0.789-0.061-1.672-0.066-2.563c0,0,0,0,0.006-0.001c-0.02-2.699,0.088-5.412,0.088-5.412L380.893,93.141z"/>
							<path fill="#EBE0BE" d="M381.344,96.376c0.072,0.845,0.156,2.106,0.145,3.395c-2.473,1.143-7.482,3.305-10.281,3.492
								c-0.037-0.789-0.061-1.672-0.066-2.563c0,0,0,0,0.006-0.001C371.43,100.641,380.245,98.832,381.344,96.376z"/>
						</g>
					</g>
				</g>
			</g>
		</g>
	</g>
	<g>
		<path fill="#00BEB9" d="M407.481,29.936h-33.006c-1.801,0-3.26,1.455-3.26,3.254v23.577c0,1.801,1.459,3.254,3.26,3.254h1.777
			v8.159l8.158-8.159h23.07c1.801,0,3.258-1.453,3.258-3.254V33.189C410.739,31.391,409.282,29.936,407.481,29.936z"/>
		<g>
			<rect x="375.801" y="34.58" fill="#FFFFFF" width="30.354" height="2.693"/>
			<rect x="375.801" y="40.614" fill="#FFFFFF" width="30.354" height="2.694"/>
			<rect x="375.801" y="46.648" fill="#FFFFFF" width="30.354" height="2.694"/>
			<rect x="375.801" y="52.684" fill="#FFFFFF" width="16.32" height="2.693"/>
		</g>
	</g>
	<g>
		<g>
			<path fill="#353537" d="M226.032,215.654h-37.715c-1.465,0-2.652-1.186-2.652-2.652l0,0c0-1.465,1.188-2.652,2.652-2.652h37.715
				c1.467,0,2.653,1.188,2.653,2.652l0,0C228.686,214.469,227.499,215.654,226.032,215.654z"/>
			<g>
				<rect x="204.573" y="219.817" fill="#EBE0BE" width="5.125" height="25.896"/>
				<rect x="203.253" y="215.654" fill="#F4EED8" width="7.845" height="10.084"/>
			</g>
			<g>
				<g>
					<rect x="191.709" y="244.507" fill="#353537" width="30.933" height="3.251"/>
					<g>
						<circle fill="#EBE0BE" cx="193.45" cy="250.552" r="2.793"/>
						<circle fill="#EBE0BE" cx="220.901" cy="250.552" r="2.793"/>
					</g>
				</g>
			</g>
		</g>
		<g>
			<path fill="#5202B5" d="M243.027,205.135c-0.373-7.844-20.541-9.711-20.541-9.711c-0.888,0-9.381,0.053-16.156,0.095
				c-6.772-0.042-15.267-0.095-16.152-0.095c0,0-20.168,1.867-20.542,9.711s10.271,48.71,10.271,48.71h8.775
				c0,0,0.749-40.866-1.491-42.36c0,0,10.822-0.179,19.139-0.9c8.318,0.722,19.145,0.9,19.145,0.9
				c-2.241,1.494-1.496,42.36-1.496,42.36h8.775C232.754,253.845,243.4,212.979,243.027,205.135z"/>
			<g>
				<g>
					<path fill="#353537" d="M187.659,253.848l-0.196,2.375l-0.057,0.707l-0.201,2.52h-13.816c-0.779,0-1.147-0.973-0.549-1.478
						c0.196-0.161,0.408-0.326,0.634-0.487c0.728-0.516,1.59-0.998,2.476-1.428c2.784-1.341,5.816-2.209,5.816-2.209H187.659z"/>
				</g>
				<path fill="#FFFFFF" d="M187.406,256.93l-0.201,2.52h-13.816c-0.779,0-1.147-0.973-0.549-1.478
					c0.196-0.161,0.408-0.326,0.634-0.487C176.543,257.652,181.328,257.675,187.406,256.93z"/>
			</g>
			<g>
				<g>
					<path fill="#353537" d="M225.799,253.848l0.196,2.375l0.057,0.707l0.202,2.52h13.815c0.778,0,1.151-0.973,0.551-1.478
						c-0.199-0.161-0.41-0.326-0.635-0.487c-0.728-0.516-1.59-0.998-2.476-1.428c-2.786-1.341-5.814-2.209-5.814-2.209H225.799z"/>
				</g>
				<path fill="#FFFFFF" d="M226.052,256.93l0.202,2.52h13.815c0.778,0,1.151-0.973,0.551-1.478
					c-0.199-0.161-0.41-0.326-0.635-0.487C236.914,257.652,232.131,257.675,226.052,256.93z"/>
			</g>
		</g>
	</g>
	<g>
		<path fill="#00BEB9" d="M226.052,195.508l-0.313,0.148c-13.077,6.285-28.249,6.531-41.521,0.684c0,0,1.001-14.744,4.001-32.344
			c1.322-7.753,3.041-16.057,5.232-23.905l0.018-0.007c0.011-0.004,0.015-0.004,0.026-0.012c0.478-0.184,0.959-0.357,1.447-0.521
			c6.224-2.066,12.945-2.071,19.166-0.027c0.526,0.174,1.048,0.364,1.567,0.566C222.858,165.732,226.052,195.508,226.052,195.508z"
			/>
		<g>
			<path fill="#00A49F" d="M193.469,140.084l-0.018,0.007c-2.191,7.849-3.91,16.152-5.232,23.905
				c-3.3,2.453-7.441,5.955-8.117,8.588c-0.375,1.447,1.169,2.655,3.433,3.636l-2.071,7.29h-4.686c0,0-9.825-2.998-9.266-11.109
				c0.561-8.111,15.957-25.586,18.151-28.666C186.745,142.219,190.22,140.965,193.469,140.084z"/>
			<path fill="#F4EED8" d="M196.243,183.51v-4.195c0,0-7.947-1.033-12.709-3.096l-2.071,7.291H196.243z"/>
		</g>
		<g>
			<path fill="#00A49F" d="M215.504,140.084l0.172,0.007c2.19,7.849,3.754,16.152,5.077,23.905c3.299,2.453,7.439,5.955,8.118,8.588
				c0.374,1.447-1.171,2.655-3.435,3.636l2.073,7.29h4.686c0,0,9.825-2.998,9.264-11.109c-0.561-8.111-15.956-25.586-18.151-28.666
				C222.227,142.219,218.752,140.965,215.504,140.084z"/>
			<path fill="#F4EED8" d="M212.729,183.51v-4.195c0,0,7.946-1.033,12.708-3.096l2.073,7.291H212.729z"/>
		</g>
		<rect x="186.862" y="157.983" fill="#353537" width="38.937" height="25.526"/>
		<g>
			<path fill="#F4EED8" d="M214.108,139.524c-0.432,2.661-2.145,7.849-8.97,7.849c-6.808,0-9.346-5.154-10.196-7.821
				c0.593-0.195,1.193-0.373,1.797-0.531c5.185-1.38,10.639-1.36,15.812,0.04C213.071,139.199,213.592,139.356,214.108,139.524z"/>
			<g>
				<path fill="#EBE0BE" d="M212.551,139.061c-1.846,1.988-5.01,4.723-8.489,4.811c-4.051,0.102-6.38-3.142-7.322-4.851
					C201.924,137.641,207.378,137.66,212.551,139.061z"/>
				<g>
					<path fill="#F4EED8" d="M214.321,129.958c0,6.871-4.411,12.443-9.854,12.443c-5.438,0-9.85-5.572-9.85-12.443
						c0-6.873,4.412-12.443,9.85-12.443C209.91,117.515,214.321,123.085,214.321,129.958z"/>
					<circle fill="#F4EED8" cx="194.97" cy="132.294" r="2.939"/>
					<circle fill="#F4EED8" cx="214.32" cy="132.294" r="2.94"/>
					<path fill="#5202B5" d="M215.405,129.562c-0.123,0.936-1.716,1.003-1.489,1.92c-0.259-0.764-0.737-1.852-1.329-2.4
						c-0.013-2.181-1.686-4.24-3.819-4.698c-1.546-0.333-3.151,0.106-4.731,0.026c-1.857-0.095-3.665-0.941-4.922-2.307
						c-2.195,2.709-3.858,6.111-3.919,9.596c-0.284-0.89-0.956-1.492-1.801-1.886c0,0-2.419-8.021,0.805-9.656
						c0,0-1.355-3.969,3.967-4.715c5.322-0.747,14.615,1.727,16.155-1.774c0,0,2.146,5.696,0,7.05
						C214.321,120.717,216.585,120.665,215.405,129.562z"/>
				</g>
			</g>
		</g>
	</g>
	<path fill="#FF6748" d="M105.958,128.942c0.176-3.89,2.55-7.57,2.034-11.43c-0.926-6.934-10.928-11.308-17.104-9.326
		c-2.216,0.71-3.825,2.35-4.913,4.317c-1.8,1.998-3.2,4.351-3.875,6.953c-0.647,2.504-0.245,5.014-0.142,7.556
		c0.037,0.88-0.005,1.725-0.111,2.546c-0.39,0.765-0.859,1.498-1.46,2.18c-1.073,1.227-2.479,2.117-3.619,3.28
		c-1.45,1.481-2.424,3.36-3.232,5.27c-1.156,2.725-2.026,5.8-1.104,8.611c0.914,2.786,3.417,4.753,6.016,6.113
		c4.893,2.561,10.591,3.552,16.06,2.795c3.385-0.467,6.79-1.66,9.213-4.071c2.376-2.362,3.598-5.707,3.911-9.043
		c0.315-3.335-0.205-6.693-0.896-9.974C106.333,132.813,105.867,130.89,105.958,128.942z M82.649,127.613
		c0.003-1.165-0.061-2.356-0.144-3.573c-0.241-3.583,0.72-6.581,2.456-9.202c-0.061,0.192-0.123,0.385-0.176,0.579
		C83.648,119.371,83.877,123.791,82.649,127.613z"/>
	<g>
		<g>
			<g>
				<path fill="#F4EED8" d="M66.213,220.27c-8.101-0.916-13.476-4.173-15.973-9.682c-7.219-15.924,12.729-44.947,13.58-46.174
					l2.301,1.597c-0.198,0.288-19.896,28.942-13.329,43.421c2.062,4.549,6.683,7.257,13.737,8.055L66.213,220.27z"/>
			</g>
			<path fill="#353537" d="M85.608,182.629H63.264c-3.952,0-7.154-3.201-7.154-7.152v-15.189c0-3.951,3.202-7.154,7.154-7.154
				h22.345V182.629z"/>
			<path fill="#353537" d="M96.477,221.762H58.764c-1.468,0-2.654-1.188-2.654-2.653l0,0c0-1.464,1.187-2.651,2.654-2.651h37.713
				c1.466,0,2.652,1.188,2.652,2.651l0,0C99.129,220.574,97.942,221.762,96.477,221.762z"/>
		</g>
		<g>
			<g>
				<path fill="#5202B5" d="M77.994,216.215c0,0,19.596,0.896,25.758,0l-5.883,37.652h7.649c0,0,16.441-45.271,10.838-50.872
					c-5.603-5.603-23.247-4.987-23.247-4.987l-16.25,8.35L77.994,216.215z"/>
				<g>
					<path fill="#353537" d="M99.129,253.845l0.193,2.376l0.26,3.229h13.815c0.781,0,1.147-0.977,0.549-1.481
						c-0.832-0.699-1.949-1.347-3.109-1.91c-2.782-1.343-5.813-2.214-5.813-2.214H99.129z"/>
					<path fill="#F4EED8" d="M99.129,253.845l0.193,2.376c0.896,0.484,1.876,0.816,2.876,1.03c1.593,0.333,3.235,0.37,4.868,0.354
						c1.457-0.01,2.958-0.382,3.771-1.547c-2.782-1.343-5.813-2.214-5.813-2.214H99.129z"/>
				</g>
			</g>
			<path fill="#00A49F" d="M102.464,132.882c0,0,4.183,1.763,6.05,9.98c1.868,8.216,3.361,28.011,3.361,28.011l13.808,4.529
				l0.198,6.303l-28.012,1.381l0.746-24.352L102.464,132.882z"/>
			<g>
				<g>
					<path fill="#353537" d="M138.139,243.434l0.883,2.213l1.196,3.011l13.203-4.067c0.75-0.229,0.813-1.271,0.093-1.578
						c-1.001-0.424-2.259-0.715-3.536-0.912c-3.051-0.463-6.207-0.402-6.207-0.402L138.139,243.434z"/>
					<path fill="#F4EED8" d="M138.139,243.434l0.883,2.213c0.999,0.198,2.032,0.229,3.052,0.137c1.62-0.148,3.2-0.597,4.757-1.092
						c1.391-0.441,2.716-1.235,3.147-2.592c-3.051-0.463-6.207-0.402-6.207-0.402L138.139,243.434z"/>
				</g>
				<path fill="#6D26D7" d="M66.982,191.092c0,0-4.875,20.681,7.076,24.507c11.953,3.827,45.779-10.861,45.779-10.861l16.986,39.071
					l8.218-2.24c0,0-9.712-49.785-16.061-50.477c-6.351-0.692-26.518,0-26.518,0H66.982z"/>
			</g>
			<path fill="#00BEB9" d="M102.464,191.088l-3.103,0.563l-8.858,1.606l-26.232,4.751c0,0,10.925-30.017,11.625-33.951
				c0.702-3.933,0.797-14.738,0.052-20.012c-0.752-5.271,7.541-11.166,7.541-11.166h18.976c0.051,0.057,0.101,0.117,0.15,0.181
				C112.44,144.578,102.464,191.088,102.464,191.088z"/>
			<path fill="#5202B5" d="M99.361,191.65l-8.858,1.606c5.764-38.696-3.418-60.378-3.418-60.378h15.379
				c0.051,0.057,0.101,0.117,0.15,0.181C108.283,140.304,100.793,183.677,99.361,191.65z"/>
			<path fill="#F4EED8" d="M87.085,132.882c0,0,5.508,8.479,11.485,6.612c5.975-1.868,3.894-6.612,3.894-6.612H87.085z"/>
			<g>
				<path fill="#F4EED8" d="M132.042,180.326c-1.388-1.226-4.176-4.652-6.359-4.924c-1.056-0.131-7.75,2.549-7.75,2.549
					s-11.514-0.511-22.178-1.252l-0.551,6.429c7.504-0.11,16.068-0.302,23.181-0.563c5.285,1.451,10.718,0.196,13.309-0.611
					C132.41,181.736,132.598,180.822,132.042,180.326z"/>
				<path fill="#00A49F" d="M83.49,132.882c0,0-9.524,3.069-11.577,14.276c-2.056,11.203-0.937,37.348,2.426,39.216
					c3.362,1.867,23.53-0.933,23.53-0.933v-9.151l-13.495-0.747C84.374,175.543,92.079,139.709,83.49,132.882z"/>
			</g>
		</g>
		<g>
			<rect x="75.017" y="225.926" fill="#EBE0BE" width="5.123" height="25.895"/>
			<rect x="73.698" y="221.762" fill="#F4EED8" width="7.843" height="10.084"/>
		</g>
		<g>
			<g>
				<rect x="62.152" y="250.615" fill="#353537" width="30.935" height="3.252"/>
				<g>
					<circle fill="#EBE0BE" cx="63.894" cy="256.659" r="2.792"/>
					<circle fill="#EBE0BE" cx="91.345" cy="256.659" r="2.793"/>
				</g>
			</g>
		</g>
	</g>
	<g>
		<rect x="100.474" y="183.51" fill="#FF6748" width="186.841" height="4.091"/>
		<rect x="105.655" y="187.601" fill="#E34932" width="176.478" height="4.592"/>
	</g>
	<g>
		<polygon fill="#353537" points="113.552,263.064 121.017,192.192 115.412,192.192 110.077,263.064 		"/>
		<polygon fill="#353537" points="277.709,263.064 272.377,192.192 266.773,192.192 274.237,263.064 		"/>
	</g>
	<g>
		<rect x="109.492" y="180.75" fill="#353537" width="21.978" height="2.76"/>
		<polygon fill="#353537" points="159.178,183.51 123.937,183.51 129.541,157.983 164.784,157.983 		"/>
	</g>
	<g>
		<path fill="#F4EED8" d="M105.291,118.569c0,0,2.145,13.604-5.273,13.302c-7.414-0.3-10.052-5.694-9.462-8.887
			s1.159-9.55,7.537-10.189C104.471,112.157,105.291,118.569,105.291,118.569z"/>
		<circle fill="#F4EED8" cx="90.055" cy="125.606" r="2.452"/>
		<path fill="#FF6748" d="M88.774,123.519c0,0,1.89-0.734,3.225,0.596c0,0,9.247-2.153,9.154-7.118c0,0,1.887-0.863,3.663-0.13
			c0,0-1.634-8.205-12.146-5.403c-10.515,2.802-5.026,13.698-5.026,13.698S87.662,124.249,88.774,123.519z"/>
		<path fill="#F4EED8" d="M91.036,125.301l-0.338,1.829c0,0-0.046,0.334-0.099,0.87c-0.075,0.705-0.167,1.759-0.185,2.836
			c-0.028,1.674,0.114,3.413,0.746,4.024c1.349,1.312,6.581,1.671,7.321,1.353c0.234-0.1,0.383-1.035,0.471-2.269
			c0.047-0.659,0.082-1.396,0.102-2.144c0,0,0,0-0.003,0c0.063-2.259,0.025-4.53,0.025-4.53L91.036,125.301z"/>
		<path fill="#EBE0BE" d="M90.6,128c-0.075,0.705-0.167,1.759-0.185,2.836c2.049,1.002,6.201,2.9,8.538,3.108
			c0.047-0.659,0.082-1.396,0.102-2.144c0,0,0,0-0.003,0C98.815,131.745,91.474,130.073,90.6,128z"/>
	</g>
	<g>
		<polygon fill="#F4EED8" points="192.631,92.547 192.631,100.019 188.762,103.824 181.354,103.824 181.354,92.547 		"/>
		<polygon fill="#EBE0BE" points="192.631,100.019 188.762,103.824 188.762,100.019 		"/>
	</g>
	<g>
		<g>
			<rect x="165.173" y="81.618" fill="#FFFFFF" width="11.275" height="11.276"/>
		</g>
	</g>
	<g>
		<g>
			<path fill="#FFFFFF" d="M182.908,129.809l0.463,1.629l0.462-1.629c0.389-1.374,1.314-2.533,2.567-3.218l0,0l0,0
				c-1.253-0.686-2.179-1.845-2.567-3.219l-0.462-1.629l-0.463,1.629c-0.388,1.374-1.313,2.533-2.566,3.219l0,0l0,0
				C181.595,127.275,182.521,128.435,182.908,129.809z"/>
			<path fill="#FFFFFF" d="M178.628,136.417l0.355,1.259l0.357-1.259c0.303-1.063,1.018-1.959,1.985-2.49l0,0l0,0
				c-0.968-0.53-1.683-1.427-1.985-2.489l-0.357-1.259l-0.355,1.259c-0.303,1.063-1.017,1.959-1.984,2.489l0,0l0,0
				C177.611,134.458,178.325,135.354,178.628,136.417z"/>
		</g>
	</g>
	<g>
		<g>
			<path fill="#FFFFFF" d="M402.463,87.342l0.461,1.629l0.463-1.629c0.393-1.374,1.314-2.533,2.566-3.219l0,0l0,0
				c-1.252-0.686-2.174-1.845-2.566-3.217l-0.463-1.631l-0.461,1.631c-0.389,1.372-1.316,2.531-2.564,3.217l0,0l0,0
				C401.147,84.809,402.075,85.968,402.463,87.342z"/>
			<path fill="#FFFFFF" d="M398.18,93.948l0.359,1.26l0.355-1.26c0.305-1.063,1.018-1.958,1.986-2.488l0,0l0,0
				c-0.969-0.529-1.682-1.428-1.986-2.489l-0.355-1.261l-0.359,1.261c-0.301,1.062-1.014,1.96-1.982,2.489l0,0l0,0
				C397.167,91.99,397.879,92.886,398.18,93.948z"/>
		</g>
	</g>
	<g>
		<g>
			<path fill="#FFFFFF" d="M340.37,147.863l-0.594,2.096l-0.596-2.096c-0.5-1.768-1.689-3.258-3.301-4.138l0,0l0,0
				c1.611-0.882,2.801-2.374,3.301-4.141l0.596-2.097l0.594,2.097c0.5,1.767,1.691,3.259,3.303,4.141l0,0l0,0
				C342.061,144.605,340.87,146.096,340.37,147.863z"/>
			<path fill="#FFFFFF" d="M345.877,156.363l-0.461,1.62l-0.459-1.62c-0.387-1.367-1.309-2.521-2.555-3.202l0,0l0,0
				c1.246-0.683,2.168-1.835,2.555-3.202l0.459-1.62l0.461,1.62c0.387,1.367,1.307,2.52,2.555,3.202l0,0l0,0
				C347.184,153.843,346.264,154.996,345.877,156.363z"/>
		</g>
	</g>
</g>
</svg>
