<?xml version="1.0" encoding="utf-8"?>
<!-- Generator: Adobe Illustrator 16.0.0, SVG Export Plug-In . SVG Version: 6.00 Build 0)  -->
<!DOCTYPE svg PUBLIC "-//W3C//DTD SVG 1.1//EN" "http://www.w3.org/Graphics/SVG/1.1/DTD/svg11.dtd">
<svg version="1.1" id="Layer_1" xmlns="http://www.w3.org/2000/svg" xmlns:xlink="http://www.w3.org/1999/xlink" x="0px" y="0px"
	 width="51px" height="51px" viewBox="0 0 51 51" enable-background="new 0 0 51 51" xml:space="preserve">
<rect x="0.5" y="0.5" fill="none" stroke="#000000" stroke-width="2" stroke-miterlimit="10" width="50" height="50"/>
<g>
	<path fill="none" stroke="#2F2F30" stroke-width="2.5" stroke-miterlimit="10" d="M41.001,43.664c-9.55,0-18.905,0.005-28.26-0.008
		c-0.918-0.001-1.835-0.114-2.736-0.174c-0.257-8.623,6.88-15.76,15.532-15.702C34.07,27.836,41.113,34.814,41.001,43.664z"/>
	<path fill="none" stroke="#2F2F30" stroke-width="2.5" stroke-miterlimit="10" d="M34.146,15.983
		c0.043,4.702-3.985,8.79-8.667,8.794c-4.635,0.003-8.794-4.169-8.746-8.773c0.046-4.399,4.148-8.555,8.558-8.667
		C29.854,7.222,34.104,11.37,34.146,15.983z"/>
</g>
</svg>
