<?xml version="1.0" encoding="utf-8"?>
<!-- Generator: Adobe Illustrator 16.0.0, SVG Export Plug-In . SVG Version: 6.00 Build 0)  -->
<!DOCTYPE svg PUBLIC "-//W3C//DTD SVG 1.1//EN" "http://www.w3.org/Graphics/SVG/1.1/DTD/svg11.dtd">
<svg version="1.1" id="Layer_1" xmlns="http://www.w3.org/2000/svg" xmlns:xlink="http://www.w3.org/1999/xlink" x="0px" y="0px"
	 width="28.867px" height="28.866px" viewBox="0 0 28.867 28.866" enable-background="new 0 0 28.867 28.866" xml:space="preserve">
<g>
	<path fill-rule="evenodd" clip-rule="evenodd" fill="#E5E5E5" d="M28.867,14.464C28.863,22.479,22.445,28.87,14.4,28.866
		C6.381,28.863-0.003,22.449,0,14.399C0.003,6.33,6.426-0.014,14.576,0C22.495,0.012,28.871,6.465,28.867,14.464z M8.139,16.114
		c0.503,0.53,0.859,1.009,1.313,1.355c0.449,0.341,1.001,0.548,1.626,0.878c-0.539,0.273-0.916,0.546-1.338,0.668
		c-0.926,0.268-1.875,0.46-2.876,0.699c0.16,0.112,0.295,0.232,0.452,0.311c5.148,2.571,11.355-0.159,13.024-5.673
		c0.477-1.569,0.068-3.463,1.628-4.683c-0.305,0.038-0.609,0.075-1.033,0.127c0.345-0.525,0.619-0.938,0.89-1.35
		C20.633,9,19.692,8.685,18.621,8.123c-1.563-0.817-3.586,0.179-4.181,1.913c-0.202,0.585-0.24,1.227-0.353,1.842
		c-2.129-0.1-3.028-0.542-6.631-3.273c-0.714,1.548-0.304,2.888,0.855,4.257c-0.555-0.106-0.892-0.17-1.261-0.24
		c0.285,1.658,0.451,1.902,2.093,3.119C8.857,15.847,8.598,15.943,8.139,16.114z"/>
	<path fill-rule="evenodd" clip-rule="evenodd" fill="#FFFFFF" d="M8.139,16.114c0.459-0.171,0.718-0.267,1.003-0.373
		c-1.642-1.217-1.808-1.461-2.093-3.119c0.369,0.07,0.706,0.134,1.261,0.24c-1.159-1.369-1.569-2.709-0.855-4.257
		c3.604,2.732,4.502,3.174,6.631,3.273c0.113-0.616,0.151-1.257,0.353-1.842c0.595-1.734,2.618-2.73,4.181-1.913
		C19.692,8.685,20.633,9,21.824,8.447c-0.271,0.411-0.544,0.824-0.89,1.35c0.424-0.053,0.728-0.09,1.033-0.127
		c-1.561,1.22-1.152,3.114-1.628,4.683c-1.668,5.514-7.875,8.244-13.024,5.673c-0.157-0.078-0.292-0.199-0.452-0.311
		c1.001-0.239,1.95-0.431,2.876-0.699c0.422-0.122,0.799-0.395,1.338-0.668c-0.625-0.33-1.177-0.538-1.626-0.878
		C8.998,17.123,8.642,16.644,8.139,16.114z"/>
</g>
</svg>
