<?xml version="1.0" encoding="utf-8"?>
<!-- Generator: Adobe Illustrator 16.0.0, SVG Export Plug-In . SVG Version: 6.00 Build 0)  -->
<!DOCTYPE svg PUBLIC "-//W3C//DTD SVG 1.1//EN" "http://www.w3.org/Graphics/SVG/1.1/DTD/svg11.dtd">
<svg version="1.1" id="Layer_1" xmlns="http://www.w3.org/2000/svg" xmlns:xlink="http://www.w3.org/1999/xlink" x="0px" y="0px"
	 width="28.867px" height="28.866px" viewBox="0 0 28.867 28.866" enable-background="new 0 0 28.867 28.866" xml:space="preserve">
<path fill-rule="evenodd" clip-rule="evenodd" fill="#E5E5E5" d="M14.408,0c8.045-0.003,14.455,6.386,14.459,14.408
	c0.003,8.041-6.393,14.456-14.412,14.458C6.362,28.869-0.008,22.468,0,14.342C0.009,6.391,6.428,0.001,14.408,0z M10.831,11.75
	c0,0.944,0,1.783,0,2.629c0.554,0.051,1.023,0.09,1.589,0.142c0,2.649,0,5.223,0,7.815c1.101,0,2.091,0,3.198,0
	c0-2.649,0-5.223,0-7.84c0.806-0.045,1.496-0.083,2.246-0.123c0.079-0.918,0.15-1.753,0.227-2.668c-0.547,0-0.918,0.008-1.289-0.002
	c-0.364-0.009-0.728-0.036-1.069-0.053c-0.337-2.214-0.301-2.254,2.274-2.636c0-0.828,0-1.662,0-2.833
	c-1.589,0.311-3.193,0.284-4.432,0.945c-1.7,0.907-1.05,2.925-1.242,4.529C11.796,11.688,11.355,11.716,10.831,11.75z"/>
<path fill-rule="evenodd" clip-rule="evenodd" fill="#FFFFFF" d="M11.165,11.915c0.524-0.033,0.965-0.061,1.501-0.094
	c0.192-1.604-0.458-3.622,1.242-4.529c1.239-0.661,2.843-0.635,4.432-0.945c0,1.171,0,2.004,0,2.833
	c-2.575,0.382-2.611,0.422-2.274,2.636c0.341,0.018,0.705,0.044,1.069,0.053c0.37,0.011,0.742,0.002,1.289,0.002
	c-0.077,0.915-0.148,1.75-0.227,2.668c-0.75,0.04-1.44,0.077-2.246,0.123c0,2.617,0,5.191,0,7.84c-1.107,0-2.097,0-3.198,0
	c0-2.592,0-5.166,0-7.815c-0.565-0.052-1.035-0.091-1.589-0.142C11.165,13.697,11.165,12.858,11.165,11.915z"/>
</svg>
