<?xml version="1.0" encoding="utf-8"?>
<!-- Generator: Adobe Illustrator 16.0.0, SVG Export Plug-In . SVG Version: 6.00 Build 0)  -->
<!DOCTYPE svg PUBLIC "-//W3C//DTD SVG 1.1//EN" "http://www.w3.org/Graphics/SVG/1.1/DTD/svg11.dtd">
<svg version="1.1" id="Layer_1" xmlns="http://www.w3.org/2000/svg" xmlns:xlink="http://www.w3.org/1999/xlink" x="0px" y="0px"
	 width="28.867px" height="28.866px" viewBox="0 0 28.867 28.866" enable-background="new 0 0 28.867 28.866" xml:space="preserve">
<g>
	<path fill-rule="evenodd" clip-rule="evenodd" fill="#E5E5E5" d="M14.431,0c8.039-0.001,14.435,6.394,14.437,14.43
		c0,8.033-6.402,14.436-14.434,14.436c-8.08,0-14.443-6.414-14.434-14.545C0.011,6.38,6.44,0.001,14.431,0z M21.673,14.432
		c0-1.765,0.013-3.531-0.005-5.296c-0.013-1.296-0.645-1.93-1.943-1.936c-3.531-0.016-7.061-0.016-10.591,0
		C7.839,7.206,7.202,7.845,7.198,9.143c-0.015,3.529-0.015,7.06,0,10.591c0.005,1.296,0.641,1.93,1.942,1.936
		c3.529,0.016,7.06,0.016,10.589,0c1.297-0.005,1.925-0.644,1.938-1.942C21.686,17.961,21.673,16.198,21.673,14.432z"/>
	<path fill-rule="evenodd" clip-rule="evenodd" fill="#FFFFFF" d="M21.673,14.432c0,1.766,0.013,3.529-0.005,5.295
		c-0.013,1.298-0.641,1.937-1.938,1.942c-3.529,0.016-7.06,0.016-10.589,0c-1.301-0.005-1.937-0.64-1.942-1.936
		c-0.015-3.531-0.015-7.062,0-10.591c0.004-1.298,0.641-1.937,1.935-1.942c3.531-0.016,7.06-0.016,10.591,0
		c1.298,0.005,1.93,0.64,1.943,1.936C21.686,10.901,21.673,12.667,21.673,14.432z M10.085,13.285
		c-0.41-0.06-0.734-0.107-1.128-0.165c0,2.087,0.015,4.001-0.007,5.912c-0.007,0.608,0.188,0.887,0.836,0.884
		c3.079-0.019,6.159-0.016,9.24,0c0.6,0.002,0.896-0.178,0.884-0.834c-0.032-1.914-0.022-3.829-0.037-5.745
		c-0.001-0.061-0.07-0.121-0.158-0.263c-0.283,0.087-0.584,0.183-0.888,0.276c0.372,2.084-0.202,3.743-1.933,4.849
		c-1.634,1.042-3.364,1.031-4.978-0.052C10.252,17.034,9.665,15.422,10.085,13.285z M17.363,14.393
		c-0.006-1.569-1.279-2.835-2.879-2.862c-1.628-0.027-2.98,1.285-2.975,2.888c0.007,1.549,1.304,2.835,2.891,2.866
		C16.029,17.315,17.367,16.006,17.363,14.393z M18.546,9c-1.135-0.26-1.444,0.221-1.431,1.312c0.011,1.018,0.191,1.458,1.35,1.45
		c1.12-0.005,1.516-0.275,1.477-1.444C19.906,9.266,19.685,8.706,18.546,9z"/>
	<path fill-rule="evenodd" clip-rule="evenodd" fill="#E5E5E5" d="M10.085,13.285c-0.42,2.137,0.167,3.749,1.832,4.864
		c1.614,1.083,3.343,1.094,4.978,0.052c1.731-1.106,2.304-2.765,1.933-4.849c0.304-0.093,0.605-0.188,0.888-0.276
		c0.088,0.142,0.157,0.202,0.158,0.263c0.015,1.916,0.005,3.831,0.037,5.745c0.012,0.656-0.284,0.836-0.884,0.834
		c-3.081-0.016-6.161-0.019-9.24,0c-0.648,0.002-0.843-0.276-0.836-0.884c0.021-1.911,0.007-3.825,0.007-5.912
		C9.351,13.178,9.675,13.226,10.085,13.285z"/>
	<path fill-rule="evenodd" clip-rule="evenodd" fill="#E5E5E5" d="M17.363,14.393c0.004,1.614-1.334,2.923-2.962,2.892
		c-1.587-0.031-2.884-1.317-2.891-2.866c-0.005-1.604,1.346-2.915,2.975-2.888C16.083,11.557,17.356,12.823,17.363,14.393z"/>
	<path fill-rule="evenodd" clip-rule="evenodd" fill="#E5E5E5" d="M18.546,9c1.139-0.294,1.36,0.266,1.396,1.317
		c0.039,1.169-0.357,1.439-1.477,1.444c-1.159,0.008-1.339-0.432-1.35-1.45C17.102,9.221,17.411,8.74,18.546,9z"/>
</g>
</svg>
