<?xml version="1.0" encoding="utf-8"?>
<!-- Generator: Adobe Illustrator 16.0.0, SVG Export Plug-In . SVG Version: 6.00 Build 0)  -->
<!DOCTYPE svg PUBLIC "-//W3C//DTD SVG 1.1//EN" "http://www.w3.org/Graphics/SVG/1.1/DTD/svg11.dtd">
<svg version="1.1" id="Layer_1" xmlns="http://www.w3.org/2000/svg" xmlns:xlink="http://www.w3.org/1999/xlink" x="0px" y="0px"
	 width="134px" height="61.333px" viewBox="0 0 134 61.333" enable-background="new 0 0 134 61.333" xml:space="preserve">
<g>
	<path fill="#404041" d="M70.998,30.654c-0.789,2.709-3.234,4.854-6.283,5.456c-0.564,0.112-1.127,0.149-1.691,0.149
		c-1.131,0-2.26-0.188-3.313-0.602c-1.768-0.715-3.311-1.882-4.629-3.574l3.463-2.71c0.789,1.054,1.73,1.808,2.746,2.183
		c0.828,0.339,1.732,0.415,2.559,0.226c1.43-0.263,2.598-1.203,2.936-2.332c0.375-1.279-0.49-2.408-1.279-3.161
		c-1.242-1.166-3.273-3.16-3.424-3.311l-3.424-3.236c-1.055-1.016-1.77-2.144-2.145-3.349c-0.377-1.166-0.414-2.408-0.076-3.536
		c0.338-1.204,1.055-2.258,2.07-3.123c0.939-0.791,2.105-1.354,3.348-1.58c1.355-0.302,2.783-0.188,4.139,0.301
		c1.43,0.564,2.709,1.505,3.801,2.822l-3.424,2.746c-1.43-1.73-2.896-1.73-3.688-1.58c-0.979,0.188-1.807,0.828-2.031,1.618
		c-0.15,0.526-0.113,1.392,1.053,2.521l4.666,4.477c0.678,0.678,1.506,1.468,2.105,2.031c1.205,1.092,2.033,2.334,2.447,3.65
		C71.338,28.02,71.375,29.374,70.998,30.654z M99.633,36.259V21.435l-8.729,13.019l-8.768-13.019v14.824h-4.365V7.062l13.133,19.565
		l13.131-19.565v29.197H99.633z M116.49,19.705h10.195v3.95H116.49v8.654h12.379v3.95h-12.418h-4.326V8.342h4.326h12.418v3.912
		H116.49V19.705z"/>
	<g>
		<path fill="#6D6E70" d="M58.68,44.823c0,0.281-0.061,0.531-0.182,0.76c-0.123,0.213-0.297,0.395-0.518,0.539
			c-0.387,0.242-0.91,0.372-1.549,0.372H55.93h-0.744v-5.637h0.883h0.363c0.623,0,1.078,0.114,1.396,0.35
			c0.176,0.128,0.305,0.296,0.389,0.486c0.076,0.175,0.113,0.371,0.113,0.592c0,0.305-0.098,0.676-0.441,1.034
			c0.092,0.06,0.176,0.129,0.26,0.204c0.166,0.167,0.297,0.35,0.387,0.555C58.635,44.306,58.68,44.557,58.68,44.823z M56.068,41.647
			v1.71c0.172-0.038,0.379-0.1,0.576-0.184c0.281-0.113,0.5-0.242,0.652-0.395c0.16-0.151,0.236-0.311,0.236-0.494
			c0-0.273-0.098-0.38-0.182-0.44c-0.213-0.159-0.625-0.197-0.92-0.197H56.068z M57.889,44.823c0-0.297-0.098-0.532-0.295-0.722
			c-0.115-0.114-0.258-0.205-0.434-0.281c-0.074,0.029-0.15,0.068-0.234,0.099c-0.313,0.129-0.625,0.206-0.857,0.259v1.519h0.363
			c0.479,0,0.865-0.083,1.115-0.242C57.783,45.301,57.889,45.104,57.889,44.823z"/>
		<path fill="#6D6E70" d="M70.438,46.494h-0.996l-1.42-1.907h-0.645v1.907h-0.883v-5.637h0.744h0.926
			c0.746,0,1.178,0.304,1.406,0.563c0.297,0.326,0.455,0.782,0.455,1.307c0,0.516-0.158,0.973-0.455,1.299
			c-0.137,0.152-0.35,0.326-0.652,0.433L70.438,46.494z M68.164,43.797c0.365,0,0.639-0.107,0.814-0.305
			c0.213-0.227,0.25-0.546,0.25-0.767c0-0.229-0.037-0.547-0.25-0.775c-0.176-0.197-0.449-0.297-0.814-0.297h-0.787v2.144H68.164z"
			/>
		<path fill="#6D6E70" d="M79.391,46.274c-0.342-0.145-0.639-0.351-0.896-0.608c-0.258-0.259-0.463-0.555-0.607-0.896
			s-0.221-0.714-0.221-1.094s0.076-0.753,0.221-1.102c0.145-0.334,0.35-0.631,0.607-0.896c0.258-0.258,0.555-0.455,0.896-0.601
			c0.342-0.145,0.713-0.22,1.094-0.22c0.379,0,0.752,0.075,1.102,0.22c0.334,0.146,0.631,0.343,0.896,0.601
			c0.258,0.266,0.455,0.563,0.6,0.896c0.145,0.349,0.221,0.722,0.221,1.102s-0.076,0.752-0.221,1.094s-0.342,0.638-0.6,0.896
			c-0.266,0.258-0.563,0.464-0.896,0.608c-0.35,0.144-0.723,0.22-1.102,0.22C80.104,46.494,79.732,46.417,79.391,46.274z
			 M79.117,42.308c-0.365,0.364-0.568,0.851-0.568,1.367s0.203,1.003,0.568,1.368c0.363,0.363,0.85,0.569,1.367,0.569
			s1.004-0.206,1.367-0.569c0.365-0.365,0.57-0.852,0.57-1.368s-0.205-1.003-0.57-1.367c-0.363-0.365-0.85-0.569-1.367-0.569
			S79.48,41.943,79.117,42.308z"/>
		<path fill="#6D6E70" d="M94.254,46.494l-2.232-2.553v2.553h-0.881v-5.637h0.881v2.324l1.809-2.324h1.109l-2.066,2.712l2.484,2.925
			H94.254z"/>
		<path fill="#6D6E70" d="M103.824,43.151h2.059v0.798h-2.059v1.747h2.498v0.798h-2.506h-0.873v-5.637h0.873h2.506v0.79h-2.498
			V43.151z"/>
		<path fill="#6D6E70" d="M118.148,46.494h-0.996l-1.42-1.907h-0.645v1.907h-0.883v-5.637h0.746h0.926
			c0.744,0,1.178,0.304,1.406,0.563c0.297,0.326,0.455,0.782,0.455,1.307c0,0.516-0.158,0.973-0.455,1.299
			c-0.137,0.152-0.35,0.326-0.654,0.433L118.148,46.494z M115.877,43.797c0.365,0,0.639-0.107,0.813-0.305
			c0.213-0.227,0.252-0.546,0.252-0.767c0-0.229-0.039-0.547-0.252-0.775c-0.174-0.197-0.447-0.297-0.813-0.297h-0.789v2.144
			H115.877z"/>
		<path fill="#6D6E70" d="M128.721,45.363c-0.16,0.546-0.654,0.979-1.27,1.102c-0.113,0.021-0.227,0.029-0.342,0.029
			c-0.227,0-0.455-0.038-0.668-0.121c-0.357-0.145-0.668-0.38-0.936-0.722l0.699-0.547c0.16,0.212,0.35,0.364,0.557,0.44
			c0.166,0.068,0.348,0.083,0.516,0.045c0.289-0.053,0.523-0.242,0.594-0.471c0.074-0.259-0.1-0.486-0.26-0.639
			c-0.25-0.234-0.66-0.638-0.691-0.668l-0.691-0.653c-0.213-0.205-0.357-0.433-0.432-0.676c-0.078-0.235-0.084-0.486-0.016-0.714
			c0.068-0.244,0.211-0.456,0.418-0.631c0.189-0.159,0.426-0.273,0.676-0.319c0.273-0.061,0.561-0.038,0.836,0.062
			c0.289,0.113,0.545,0.303,0.768,0.569l-0.691,0.555c-0.289-0.351-0.586-0.351-0.744-0.319c-0.199,0.038-0.365,0.167-0.412,0.326
			c-0.029,0.106-0.023,0.281,0.213,0.509l0.943,0.905c0.135,0.136,0.303,0.296,0.426,0.41c0.242,0.22,0.408,0.471,0.492,0.736
			C128.789,44.83,128.797,45.104,128.721,45.363z"/>
	</g>
	<g>
		<path fill="#929497" d="M57.508,52.885h-1.881c0.008,0.297,0.088,0.526,0.24,0.688s0.361,0.242,0.629,0.242
			c0.301,0,0.576-0.099,0.828-0.297v0.4c-0.234,0.17-0.545,0.255-0.93,0.255c-0.375,0-0.672-0.121-0.887-0.362
			c-0.215-0.242-0.322-0.582-0.322-1.021c0-0.414,0.117-0.752,0.354-1.013c0.234-0.261,0.525-0.392,0.875-0.392
			c0.348,0,0.617,0.113,0.809,0.338c0.189,0.226,0.285,0.538,0.285,0.939V52.885z M57.07,52.524c0-0.245-0.061-0.437-0.178-0.574
			c-0.117-0.137-0.279-0.205-0.486-0.205c-0.201,0-0.373,0.072-0.514,0.215c-0.141,0.145-0.227,0.333-0.26,0.564H57.07z"/>
		<path fill="#929497" d="M61.803,51.448l-0.895,1.348l0.881,1.316h-0.498l-0.523-0.864c-0.033-0.054-0.07-0.121-0.117-0.202h-0.01
			c-0.008,0.015-0.049,0.083-0.121,0.202l-0.533,0.864h-0.492l0.908-1.307l-0.869-1.357h0.496l0.516,0.91
			c0.037,0.067,0.076,0.137,0.111,0.209h0.01l0.666-1.119H61.803z"/>
		<path fill="#929497" d="M65.822,53.989c-0.203,0.123-0.447,0.185-0.729,0.185c-0.379,0-0.686-0.123-0.918-0.371
			c-0.234-0.246-0.352-0.567-0.352-0.96c0-0.438,0.127-0.791,0.379-1.058c0.25-0.267,0.586-0.399,1.006-0.399
			c0.234,0,0.441,0.043,0.619,0.13v0.438c-0.197-0.14-0.41-0.208-0.635-0.208c-0.271,0-0.496,0.098-0.67,0.292
			c-0.174,0.195-0.262,0.451-0.262,0.769c0,0.313,0.082,0.559,0.246,0.739s0.383,0.271,0.66,0.271c0.232,0,0.451-0.077,0.654-0.231
			V53.989z"/>
		<path fill="#929497" d="M70.313,52.885h-1.881c0.008,0.297,0.088,0.526,0.24,0.688s0.363,0.242,0.629,0.242
			c0.301,0,0.576-0.099,0.826-0.297v0.4c-0.232,0.17-0.541,0.255-0.926,0.255c-0.377,0-0.674-0.121-0.889-0.362
			c-0.215-0.242-0.322-0.582-0.322-1.021c0-0.414,0.117-0.752,0.352-1.013c0.236-0.261,0.527-0.392,0.877-0.392
			c0.348,0,0.617,0.113,0.809,0.338c0.189,0.226,0.285,0.538,0.285,0.939V52.885z M69.875,52.524c0-0.245-0.061-0.437-0.178-0.574
			c-0.117-0.137-0.279-0.205-0.486-0.205c-0.201,0-0.373,0.072-0.514,0.215c-0.141,0.145-0.227,0.333-0.26,0.564H69.875z"/>
		<path fill="#929497" d="M73.09,54.112h-0.428v-3.943h0.428V54.112z"/>
		<path fill="#929497" d="M79.146,50.771c-0.076,0-0.143-0.025-0.195-0.077c-0.055-0.053-0.082-0.118-0.082-0.198
			c0-0.079,0.027-0.146,0.082-0.198c0.053-0.054,0.119-0.079,0.195-0.079c0.078,0,0.145,0.025,0.199,0.079
			c0.055,0.053,0.082,0.119,0.082,0.198c0,0.077-0.027,0.142-0.082,0.195S79.225,50.771,79.146,50.771z M79.354,54.112h-0.426
			v-2.664h0.426V54.112z"/>
		<path fill="#929497" d="M84.133,54.112h-0.426v-1.52c0-0.565-0.207-0.848-0.619-0.848c-0.215,0-0.391,0.08-0.529,0.239
			c-0.141,0.161-0.209,0.363-0.209,0.608v1.52h-0.428v-2.664h0.428v0.442h0.01c0.201-0.336,0.492-0.505,0.873-0.505
			c0.291,0,0.516,0.094,0.67,0.282s0.23,0.46,0.23,0.815V54.112z"/>
		<path fill="#929497" d="M92.053,52.885h-1.881c0.006,0.297,0.086,0.526,0.238,0.688s0.363,0.242,0.631,0.242
			c0.299,0,0.576-0.099,0.826-0.297v0.4c-0.232,0.17-0.543,0.255-0.928,0.255c-0.377,0-0.672-0.121-0.887-0.362
			c-0.215-0.242-0.324-0.582-0.324-1.021c0-0.414,0.119-0.752,0.354-1.013s0.527-0.392,0.875-0.392s0.617,0.113,0.809,0.338
			c0.191,0.226,0.287,0.538,0.287,0.939V52.885z M91.615,52.524c-0.002-0.245-0.061-0.437-0.178-0.574
			c-0.117-0.137-0.279-0.205-0.488-0.205c-0.201,0-0.371,0.072-0.512,0.215c-0.141,0.145-0.229,0.333-0.26,0.564H91.615z"/>
		<path fill="#929497" d="M96.346,51.448l-0.893,1.348l0.879,1.316h-0.498l-0.521-0.864c-0.033-0.054-0.072-0.121-0.117-0.202h-0.01
			c-0.01,0.015-0.051,0.083-0.123,0.202l-0.533,0.864h-0.492l0.908-1.307l-0.869-1.357h0.496l0.516,0.91
			c0.039,0.067,0.076,0.137,0.111,0.209h0.01l0.668-1.119H96.346z"/>
		<path fill="#929497" d="M100.365,53.989c-0.203,0.123-0.447,0.185-0.727,0.185c-0.381,0-0.688-0.123-0.92-0.371
			c-0.232-0.246-0.35-0.567-0.35-0.96c0-0.438,0.125-0.791,0.377-1.058s0.586-0.399,1.006-0.399c0.234,0,0.441,0.043,0.619,0.13
			v0.438c-0.197-0.14-0.408-0.208-0.635-0.208c-0.271,0-0.494,0.098-0.67,0.292c-0.174,0.195-0.26,0.451-0.26,0.769
			c0,0.313,0.082,0.559,0.246,0.739c0.162,0.181,0.383,0.271,0.658,0.271c0.232,0,0.451-0.077,0.654-0.231V53.989z"/>
		<path fill="#929497" d="M104.857,52.885h-1.881c0.008,0.297,0.088,0.526,0.238,0.688c0.154,0.161,0.363,0.242,0.631,0.242
			c0.299,0,0.576-0.099,0.826-0.297v0.4c-0.234,0.17-0.543,0.255-0.928,0.255c-0.377,0-0.672-0.121-0.887-0.362
			c-0.217-0.242-0.322-0.582-0.322-1.021c0-0.414,0.117-0.752,0.352-1.013s0.527-0.392,0.875-0.392c0.35,0,0.619,0.113,0.809,0.338
			c0.191,0.226,0.287,0.538,0.287,0.939V52.885z M104.42,52.524c-0.002-0.245-0.061-0.437-0.178-0.574
			c-0.117-0.137-0.281-0.205-0.488-0.205c-0.201,0-0.371,0.072-0.512,0.215c-0.141,0.145-0.229,0.333-0.26,0.564H104.42z"/>
		<path fill="#929497" d="M107.633,54.112h-0.426v-3.943h0.426V54.112z"/>
		<path fill="#929497" d="M110.627,54.112h-0.426v-3.943h0.426V54.112z"/>
		<path fill="#929497" d="M115.336,52.885h-1.881c0.008,0.297,0.088,0.526,0.24,0.688s0.361,0.242,0.629,0.242
			c0.301,0,0.576-0.099,0.828-0.297v0.4c-0.234,0.17-0.543,0.255-0.93,0.255c-0.375,0-0.672-0.121-0.887-0.362
			c-0.215-0.242-0.322-0.582-0.322-1.021c0-0.414,0.117-0.752,0.352-1.013c0.236-0.261,0.527-0.392,0.877-0.392
			c0.348,0,0.617,0.113,0.809,0.338c0.189,0.226,0.285,0.538,0.285,0.939V52.885z M114.898,52.524c0-0.245-0.061-0.437-0.178-0.574
			c-0.117-0.137-0.279-0.205-0.486-0.205c-0.201,0-0.373,0.072-0.514,0.215c-0.141,0.145-0.227,0.333-0.26,0.564H114.898z"/>
		<path fill="#929497" d="M119.896,54.112h-0.426v-1.52c0-0.565-0.207-0.848-0.619-0.848c-0.213,0-0.391,0.08-0.529,0.239
			c-0.141,0.161-0.209,0.363-0.209,0.608v1.52h-0.428v-2.664h0.428v0.442h0.01c0.201-0.336,0.492-0.505,0.873-0.505
			c0.293,0,0.516,0.094,0.67,0.282s0.23,0.46,0.23,0.815V54.112z"/>
		<path fill="#929497" d="M124.221,53.989c-0.205,0.123-0.447,0.185-0.729,0.185c-0.379,0-0.686-0.123-0.92-0.371
			c-0.232-0.246-0.35-0.567-0.35-0.96c0-0.438,0.127-0.791,0.377-1.058c0.252-0.267,0.588-0.399,1.008-0.399
			c0.232,0,0.439,0.043,0.617,0.13v0.438c-0.197-0.14-0.408-0.208-0.633-0.208c-0.273,0-0.496,0.098-0.67,0.292
			c-0.176,0.195-0.262,0.451-0.262,0.769c0,0.313,0.082,0.559,0.246,0.739s0.383,0.271,0.658,0.271c0.232,0,0.451-0.077,0.656-0.231
			V53.989z"/>
		<path fill="#929497" d="M128.711,52.885h-1.881c0.008,0.297,0.088,0.526,0.24,0.688s0.361,0.242,0.629,0.242
			c0.301,0,0.576-0.099,0.826-0.297v0.4c-0.232,0.17-0.543,0.255-0.928,0.255c-0.377,0-0.672-0.121-0.887-0.362
			c-0.215-0.242-0.324-0.582-0.324-1.021c0-0.414,0.119-0.752,0.354-1.013s0.527-0.392,0.875-0.392c0.35,0,0.619,0.113,0.809,0.338
			c0.191,0.226,0.287,0.538,0.287,0.939V52.885z M128.273,52.524c-0.002-0.245-0.061-0.437-0.178-0.574
			c-0.117-0.137-0.279-0.205-0.488-0.205c-0.201,0-0.371,0.072-0.512,0.215c-0.141,0.145-0.227,0.333-0.26,0.564H128.273z"/>
	</g>
	<linearGradient id="SVGID_1_" gradientUnits="userSpaceOnUse" x1="12.0977" y1="22.0674" x2="41.8359" y2="22.0674">
		<stop  offset="0" style="stop-color:#8B6134"/>
		<stop  offset="0.2182" style="stop-color:#AC8341"/>
		<stop  offset="0.688" style="stop-color:#FFD760"/>
		<stop  offset="0.7524" style="stop-color:#ECC156"/>
		<stop  offset="1" style="stop-color:#A67132"/>
	</linearGradient>
	<polygon fill="url(#SVGID_1_)" points="41.836,7.198 37.795,11.303 16.207,11.309 16.203,32.897 12.098,36.937 12.098,7.198 	"/>
	<linearGradient id="SVGID_2_" gradientUnits="userSpaceOnUse" x1="17.2598" y1="26.9971" x2="46.998" y2="26.9971">
		<stop  offset="0" style="stop-color:#8B6134"/>
		<stop  offset="0.1621" style="stop-color:#AC8341"/>
		<stop  offset="0.5112" style="stop-color:#FFD760"/>
		<stop  offset="0.6122" style="stop-color:#ECC156"/>
		<stop  offset="1" style="stop-color:#A67132"/>
	</linearGradient>
	<polygon fill="url(#SVGID_2_)" points="46.998,12.127 42.959,16.233 21.371,16.239 21.365,37.827 17.26,41.867 17.26,12.127 	"/>
	<linearGradient id="SVGID_3_" gradientUnits="userSpaceOnUse" x1="10.2949" y1="39.4009" x2="40.0332" y2="39.4009">
		<stop  offset="0" style="stop-color:#8B6134"/>
		<stop  offset="0.1033" style="stop-color:#AC8341"/>
		<stop  offset="0.3256" style="stop-color:#FFD760"/>
		<stop  offset="0.4649" style="stop-color:#ECC156"/>
		<stop  offset="1" style="stop-color:#A67132"/>
	</linearGradient>
	<polygon fill="url(#SVGID_3_)" points="10.295,54.271 14.334,50.166 35.922,50.16 35.928,28.572 40.033,24.532 40.033,54.271 	"/>
	<linearGradient id="SVGID_4_" gradientUnits="userSpaceOnUse" x1="5.1309" y1="34.4722" x2="34.8691" y2="34.4722">
		<stop  offset="0" style="stop-color:#8B6134"/>
		<stop  offset="0.1621" style="stop-color:#AC8341"/>
		<stop  offset="0.5112" style="stop-color:#FFD760"/>
		<stop  offset="0.6122" style="stop-color:#ECC156"/>
		<stop  offset="1" style="stop-color:#A67132"/>
	</linearGradient>
	<polygon fill="url(#SVGID_4_)" points="5.131,49.341 9.172,45.236 30.76,45.23 30.764,23.642 34.869,19.603 34.869,49.341 	"/>
	<rect x="55.186" y="47.998" fill="#58595B" width="73.535" height="0.406"/>
</g>
</svg>
