<?xml version="1.0" encoding="utf-8"?>
<!-- Generator: Adobe Illustrator 16.0.0, SVG Export Plug-In . SVG Version: 6.00 Build 0)  -->
<!DOCTYPE svg PUBLIC "-//W3C//DTD SVG 1.1//EN" "http://www.w3.org/Graphics/SVG/1.1/DTD/svg11.dtd">
<svg version="1.1" id="Layer_1" xmlns="http://www.w3.org/2000/svg" xmlns:xlink="http://www.w3.org/1999/xlink" x="0px" y="0px"
	 width="51px" height="51px" viewBox="0 0 51 51" enable-background="new 0 0 51 51" xml:space="preserve">
<rect x="0.5" y="0.5" fill-rule="evenodd" clip-rule="evenodd" fill="none" stroke="#000000" stroke-miterlimit="10" width="50" height="50"/>
<g>
	<path fill-rule="evenodd" clip-rule="evenodd" fill="#2F2F30" d="M43.269,25.563c0,5.326,0.001,10.652-0.001,15.978
		c0,1.401-0.349,1.745-1.774,1.745c-10.682,0.002-21.362,0.001-32.044,0c-1.271,0-1.717-0.452-1.717-1.75
		c-0.001-10.711-0.001-21.422,0-32.133c0-1.277,0.391-1.686,1.673-1.686c10.74-0.006,21.479-0.006,32.219,0
		c1.314,0,1.642,0.352,1.644,1.692C43.27,14.793,43.269,20.178,43.269,25.563z M27.306,28.522c1.805-1.188,3.586-2.362,5.37-3.532
		c1.067-0.7,1.443-0.666,2.372,0.223c1.714,1.638,3.423,3.282,5.136,4.92c0.193,0.184,0.406,0.346,0.683,0.579
		c0-6.9,0-13.647,0-20.441c-10.22,0-20.389,0-30.586,0c0,7.047,0,14.041,0,21.12c0.333-0.203,0.582-0.349,0.826-0.502
		c3.363-2.117,6.724-4.236,10.089-6.353c1.025-0.645,1.453-0.592,2.306,0.248C24.749,26.015,26.001,27.242,27.306,28.522z
		 M33.651,27.335c-6.765,4.427-13.486,8.826-20.207,13.225c0.027,0.046,0.057,0.094,0.085,0.141c9.095,0,18.189,0,27.383,0
		c0-2.118,0.005-4.188-0.012-6.258c-0.001-0.146-0.134-0.32-0.251-0.433C38.326,31.786,35.996,29.569,33.651,27.335z M21.999,26.982
		c-3.789,2.387-7.641,4.812-11.484,7.245c-0.13,0.083-0.283,0.26-0.284,0.395c-0.019,1.645-0.013,3.29-0.013,5.085
		c5.06-3.311,9.958-6.516,14.842-9.712C24.007,28.959,23.032,27.998,21.999,26.982z"/>
	<path fill-rule="evenodd" clip-rule="evenodd" fill="#2F2F30" d="M29.09,20.693c-1.12,0.002-2.019-0.876-2.02-1.978
		c-0.003-1.096,0.901-1.984,2.017-1.986c1.113,0,2.011,0.884,2.011,1.983C31.098,19.823,30.217,20.691,29.09,20.693z"/>
</g>
</svg>
